HIERARCHY
ROOT SpineBase
{
  OFFSET 0.000000 0.000000 0.000000
  CHANNELS 6 Xposition Yposition Zposition Zrotation Xrotation Yrotation
  JOINT SpineMid
  {
    OFFSET -0.000000 29.588966 0.000000
    CHANNELS 3 Zrotation Xrotation Yrotation
    JOINT SpineShoulder
    {
      OFFSET -0.096655 22.062787 -0.823154
      CHANNELS 3 Zrotation Xrotation Yrotation
      JOINT Neck
      {
        OFFSET -0.019371 7.326075 -0.598203
        CHANNELS 3 Zrotation Xrotation Yrotation
        JOINT Head
        {
          OFFSET -3.838590 13.524365 0.185637
          CHANNELS 3 Zrotation Xrotation Yrotation
          End Site
          {
            OFFSET 0 0 0
          }
        }
      }
      JOINT ShoulderLeft
      {
        OFFSET -16.216306 -4.948053 4.774980
        CHANNELS 3 Zrotation Xrotation Yrotation
        JOINT ElbowLeft
        {
          OFFSET -1.280719 -27.788746 3.931887
          CHANNELS 3 Zrotation Xrotation Yrotation
          JOINT WristLeft
          {
            OFFSET 0.304003 -21.813419 -6.095387
            CHANNELS 3 Zrotation Xrotation Yrotation
            JOINT HandLeft
            {
              OFFSET 0.280545 -0.168028 -1.053374
              CHANNELS 3 Zrotation Xrotation Yrotation
              JOINT HandTipLeft
              {
                OFFSET 1.302596 -7.270339 -1.729881
                CHANNELS 3 Zrotation Xrotation Yrotation
                End Site
                {
                  OFFSET 0 0 0
                }
              }
              JOINT ThumbLeft
              {
                OFFSET 3.024631 1.023546 -4.117925
                CHANNELS 3 Zrotation Xrotation Yrotation
                End Site
                {
                  OFFSET 0 0 0
                }
              }
            }
          }
        }
      }
      JOINT ShoulderRight
      {
        OFFSET 14.548095 -1.948863 -6.640371
        CHANNELS 3 Zrotation Xrotation Yrotation
        JOINT ElbowRight
        {
          OFFSET 7.750539 -25.705008 1.368882
          CHANNELS 3 Zrotation Xrotation Yrotation
          JOINT WristRight
          {
            OFFSET -0.737478 -21.856076 -5.906050
            CHANNELS 3 Zrotation Xrotation Yrotation
            JOINT HandRight
            {
              OFFSET -1.513186 -5.756632 0.889437
              CHANNELS 3 Zrotation Xrotation Yrotation
              JOINT HandTipRight
              {
                OFFSET -1.005432 -4.646027 0.774743
                CHANNELS 3 Zrotation Xrotation Yrotation
                End Site
                {
                  OFFSET 0 0 0
                }
              }
              JOINT ThumbRight
              {
                OFFSET -3.260945 2.040270 -1.793284
                CHANNELS 3 Zrotation Xrotation Yrotation
                End Site
                {
                  OFFSET 0 0 0
                }
              }
            }
          }
        }
      }
    }
  }
  JOINT HipLeft
  {
    OFFSET -6.722515 0.527879 -1.581263
    CHANNELS 3 Zrotation Xrotation Yrotation
    JOINT KneeLeft
    {
      OFFSET 3.956706 -28.459357 5.036960
      CHANNELS 3 Zrotation Xrotation Yrotation
      JOINT AnkleLeft
      {
        OFFSET 3.191345 -32.396757 5.475491
        CHANNELS 3 Zrotation Xrotation Yrotation
        JOINT FootLeft
        {
          OFFSET 2.805450 -7.609941 -5.334200
          CHANNELS 3 Zrotation Xrotation Yrotation
          End Site
          {
            OFFSET 0 0 0
          }
        }
      }
    }
  }
  JOINT HipRight
  {
    OFFSET 7.295621 1.307703 -5.214329
    CHANNELS 3 Zrotation Xrotation Yrotation
    JOINT KneeRight
    {
      OFFSET 5.331647 -27.004974 2.854699
      CHANNELS 3 Zrotation Xrotation Yrotation
      JOINT AnkleRight
      {
        OFFSET 1.385832 -34.191213 6.597427
        CHANNELS 3 Zrotation Xrotation Yrotation
        JOINT FootRight
        {
          OFFSET -1.174682 -7.934134 -5.017942
          CHANNELS 3 Zrotation Xrotation Yrotation
          End Site
          {
            OFFSET 0 0 0
          }
        }
      }
    }
  }
}
MOTION
Frames: 14
Frame Time: 0.033333
-31.425371 74.240296 341.431835 1.479161 3.570819 17.686635 -0.362873 0.160492 -17.688781 -0.158803 -0.076760 0.024324 -2.103276 4.556966 2.217372 0.000000 0.000000 0.000000 -127.818068 -35.328799 -80.533603 -67.174579 -17.975922 -153.754935 87.215054 30.115003 27.629772 9.155949 58.979686 120.632388 0.000000 0.000000 0.000000 0.000000 0.000000 0.000000 108.469921 19.001607 -4.703328 57.748171 25.327756 -158.676121 -55.322201 51.501250 133.451210 9.108523 -16.716892 -30.040491 0.000000 0.000000 0.000000 0.000000 0.000000 0.000000 -5.929854 -2.392805 -18.640107 7.690978 -1.260262 1.221314 -25.491635 27.081424 26.635974 0.000000 0.000000 0.000000 -1.659849 -2.124352 -17.496709 1.287713 -3.747968 0.054001 -18.543576 35.572347 9.145425 0.000000 0.000000 0.000000
-31.512930 74.237757 341.332849 1.402077 3.505803 18.442916 -0.271360 0.163557 -18.439301 -0.145535 -0.072567 0.026310 -1.565240 4.389503 2.141468 0.000000 0.000000 0.000000 -125.799459 -35.528028 -78.389461 -70.312223 -20.866083 -149.736938 100.726706 24.256390 19.298879 -10.497061 62.775371 124.722874 0.000000 0.000000 0.000000 0.000000 0.000000 0.000000 106.702435 17.367192 -3.212269 61.994305 22.277244 -162.632904 -51.024149 47.156565 130.910713 13.624341 -21.276815 -37.422790 0.000000 0.000000 0.000000 0.000000 0.000000 0.000000 -5.870786 -2.374978 -19.395471 7.787119 -1.111113 1.244546 -30.392397 27.418825 31.268694 0.000000 0.000000 0.000000 -1.273687 -2.247599 -18.207779 0.810477 -3.772381 -0.003957 -18.368998 35.963982 9.115144 0.000000 0.000000 0.000000
-31.575386 74.230670 341.249716 1.318432 3.480302 18.922144 -0.230421 0.165846 -18.916399 -0.173682 -0.061217 0.021010 -0.713465 4.096368 2.045944 0.000000 0.000000 0.000000 -123.202502 -36.488265 -76.559278 -73.434656 -21.045789 -150.911225 95.423952 18.091547 25.279903 -5.395875 57.862173 107.908914 0.000000 0.000000 0.000000 0.000000 0.000000 0.000000 105.319947 16.642847 -2.483991 63.935850 20.595421 -163.018410 -48.473369 43.407307 131.379031 17.355426 -26.937947 -45.219459 0.000000 0.000000 0.000000 0.000000 0.000000 0.000000 -5.825748 -2.470888 -19.888194 7.840946 -0.915065 1.261600 -31.221916 26.434119 31.615137 0.000000 0.000000 0.000000 -0.960998 -2.359758 -18.648281 0.522222 -3.842609 -0.035235 -16.339550 32.670560 7.718495 0.000000 0.000000 0.000000
-31.622186 74.227860 341.209882 1.224607 3.446740 19.216255 -0.213116 0.184955 -19.210282 -0.200218 -0.057775 0.014233 0.093537 3.731343 1.938834 0.000000 0.000000 0.000000 -119.317247 -37.784066 -73.795224 -76.575804 -19.077629 -156.258098 83.963681 11.190868 35.280948 5.609374 48.516153 83.724757 0.000000 0.000000 0.000000 0.000000 0.000000 0.000000 104.709247 16.582755 -2.362957 64.227607 20.909516 -162.278318 -46.896338 40.760120 133.962084 18.419657 -32.265938 -52.528306 0.000000 0.000000 0.000000 0.000000 0.000000 0.000000 -5.751819 -2.506881 -20.185466 7.748835 -0.831380 1.249422 -27.608081 24.749415 27.642053 0.000000 0.000000 0.000000 -0.660832 -2.393402 -18.897799 0.351205 -4.006270 -0.058167 -11.770511 24.682954 4.708300 0.000000 0.000000 0.000000
-31.667913 74.235515 341.183840 1.156563 3.467097 19.456159 -0.198039 0.226352 -19.450979 -0.203151 -0.046512 0.010579 0.493124 3.158849 1.804997 0.000000 0.000000 0.000000 -114.439473 -40.071033 -71.105654 -83.776815 -16.487857 -160.287036 69.640323 2.959932 40.995737 20.410108 41.057412 68.239312 0.000000 0.000000 0.000000 0.000000 0.000000 0.000000 104.378299 16.560747 -2.212325 65.161752 22.225436 -164.274883 -46.641702 37.834888 138.845650 18.155199 -35.117245 -56.571134 0.000000 0.000000 0.000000 0.000000 0.000000 0.000000 -5.693398 -2.538233 -20.422797 7.483048 -0.869540 1.202533 -18.806367 21.119785 18.550548 0.000000 0.000000 0.000000 -0.459351 -2.493932 -19.110081 0.204679 -4.052075 -0.072333 -8.853325 19.626367 2.940086 0.000000 0.000000 0.000000
-31.674315 74.253127 341.204755 1.128380 3.506811 19.583600 -0.199010 0.287872 -19.580582 -0.196561 -0.023806 0.008677 0.732382 2.359006 1.624440 0.000000 0.000000 0.000000 -111.188228 -39.965246 -67.992082 -85.307956 -12.430656 -165.778885 69.709428 -2.455163 43.935195 41.436078 47.212111 60.784299 0.000000 0.000000 0.000000 0.000000 0.000000 0.000000 104.560879 16.927924 -2.358466 66.143066 24.222429 -167.678160 -45.907625 32.057465 148.126522 16.343114 -37.363755 -59.966028 0.000000 0.000000 0.000000 0.000000 0.000000 0.000000 -5.649265 -2.509535 -20.536798 7.273061 -0.947231 1.164243 -6.729795 11.555358 5.234396 0.000000 0.000000 0.000000 -0.348446 -2.489195 -19.207566 0.189500 -4.197819 -0.081959 -7.013200 15.926754 1.905014 0.000000 0.000000 0.000000
-31.623298 74.257127 341.246256 1.155094 3.557536 19.690541 -0.218734 0.361843 -19.690977 -0.180628 0.004355 0.009269 1.026127 1.280293 1.374259 0.000000 0.000000 0.000000 -109.931997 -38.403609 -65.547771 -84.782959 -8.486566 -169.359660 71.020413 -3.890168 44.046122 53.944214 50.857178 56.042011 0.000000 0.000000 0.000000 0.000000 0.000000 0.000000 105.205261 17.251509 -2.507791 66.279676 25.483689 -169.913468 -44.812683 27.311862 155.671294 13.566951 -39.865128 -64.097054 0.000000 0.000000 0.000000 0.000000 0.000000 0.000000 -5.666168 -2.434289 -20.630682 7.028393 -1.062414 1.117761 0.040200 5.199393 -1.875053 0.000000 0.000000 0.000000 -0.433075 -2.489600 -19.319472 0.366319 -4.251844 -0.050664 -1.965251 3.190520 -0.196349 0.000000 0.000000 0.000000
-31.568016 74.251154 341.331569 1.172223 3.588391 19.624448 -0.244394 0.414101 -19.627980 -0.171095 0.013091 0.009026 1.233201 0.321908 1.145055 0.000000 0.000000 0.000000 -110.819232 -35.738902 -64.068349 -81.436560 -7.499084 -170.146634 70.839378 -12.478955 49.782007 82.514054 50.910413 47.364600 0.000000 0.000000 0.000000 0.000000 0.000000 0.000000 106.472430 17.824007 -2.997967 65.690474 26.672600 -171.677324 -44.491179 25.534943 159.606737 11.817075 -38.147041 -62.259725 0.000000 0.000000 0.000000 0.000000 0.000000 0.000000 -5.601765 -2.334143 -20.532327 6.707740 -1.223200 1.055078 4.474036 1.453484 -6.049889 0.000000 0.000000 0.000000 -0.477117 -2.342277 -19.235842 0.573784 -4.367055 -0.036308 -0.764417 -1.781743 -0.365963 0.000000 0.000000 0.000000
-31.465584 74.231915 341.482777 1.230875 3.576970 19.414085 -0.299140 0.439092 -19.421129 -0.191523 0.007794 0.006677 1.560500 -0.600022 0.906145 0.000000 0.000000 0.000000 -113.157004 -31.847796 -62.620990 -77.652461 -5.376982 -169.567896 70.209101 -16.710752 51.507238 96.289378 49.202098 47.263414 0.000000 0.000000 0.000000 0.000000 0.000000 0.000000 108.119327 18.565299 -3.802789 64.700821 27.672486 -173.126326 -45.383447 24.704246 162.340894 9.971803 -38.950669 -63.412809 0.000000 0.000000 0.000000 0.000000 0.000000 0.000000 -5.544550 -2.113761 -20.276692 6.397293 -1.489229 0.986116 6.495437 1.573660 -7.174473 0.000000 0.000000 0.000000 -0.668263 -2.150130 -19.037551 0.751334 -4.375962 -0.033787 -1.285685 -2.701558 0.120266 0.000000 0.000000 0.000000
-31.310364 74.217813 341.678464 1.383641 3.526691 18.989415 -0.337715 0.473440 -18.998391 -0.196920 0.019531 0.010871 1.435792 -1.582834 0.630237 0.000000 0.000000 0.000000 -117.280116 -26.578380 -61.108820 -72.431382 -3.420093 -167.334662 66.944200 -21.522708 53.023733 97.997738 48.006308 46.968177 0.000000 0.000000 0.000000 0.000000 0.000000 0.000000 109.724543 19.360994 -4.718747 63.961375 28.680593 -175.173150 -45.915235 22.086697 167.214520 5.209176 -41.661259 -68.617549 0.000000 0.000000 0.000000 0.000000 0.000000 0.000000 -5.602130 -1.773811 -19.811424 6.140324 -1.837033 0.918300 6.232092 7.184499 -4.996367 0.000000 0.000000 0.000000 -1.049182 -1.928041 -18.658211 0.955170 -4.231952 -0.023879 -3.958803 2.141789 1.224092 0.000000 0.000000 0.000000
-31.124721 74.197381 341.905144 1.581868 3.447581 18.437690 -0.367577 0.493964 -18.446960 -0.197536 0.040305 0.018301 1.086914 -2.494387 0.350644 0.000000 0.000000 0.000000 -119.959579 -22.618450 -59.183014 -68.095072 -1.240352 -167.554242 66.052584 -25.778080 55.063991 103.558407 45.675284 45.935183 0.000000 0.000000 0.000000 0.000000 0.000000 0.000000 111.361244 20.305280 -5.863937 62.677882 29.557199 -176.131446 -46.559455 19.191162 172.199565 1.077611 -43.254214 -71.710182 0.000000 0.000000 0.000000 0.000000 0.000000 0.000000 -5.757045 -1.423565 -19.235766 5.996089 -2.100020 0.874048 6.894838 7.786041 -5.090089 0.000000 0.000000 0.000000 -1.453676 -1.597427 -18.138986 1.107757 -4.152124 -0.039995 -4.220700 2.604584 1.427316 0.000000 0.000000 0.000000
-30.920636 74.171757 342.140658 1.802736 3.360990 17.897132 -0.399585 0.488437 -17.905578 -0.203567 0.053148 0.026486 0.647370 -3.214120 0.101970 0.000000 0.000000 0.000000 -121.801981 -18.902200 -56.404215 -64.974640 0.686548 -167.661790 68.478317 -34.975315 59.423080 107.220035 42.428071 33.916293 0.000000 0.000000 0.000000 0.000000 0.000000 0.000000 112.906659 21.331548 -7.183611 61.035664 30.574238 -176.204714 -47.412036 16.098949 177.503018 -2.539812 -42.609787 -70.617393 0.000000 0.000000 0.000000 0.000000 0.000000 0.000000 -5.984329 -1.052672 -18.681124 5.957645 -2.347167 0.848875 6.562921 7.659481 -4.734011 0.000000 0.000000 0.000000 -1.985731 -1.339782 -17.661093 1.323255 -3.894494 -0.029573 -3.969824 3.110354 1.273947 0.000000 0.000000 0.000000
-30.717228 74.150656 342.374270 1.992121 3.273432 17.252009 -0.455977 0.465347 -17.260230 -0.248129 0.077652 0.028133 0.533311 -3.862117 -0.111099 0.000000 0.000000 0.000000 -123.169530 -16.429134 -54.485442 -65.048141 3.684958 -166.006270 61.051576 -37.315317 55.842333 99.704905 42.582991 31.997481 0.000000 0.000000 0.000000 0.000000 0.000000 0.000000 114.280633 22.335045 -8.507199 59.385691 31.810112 -175.854607 -47.642754 12.630439 -176.538475 -5.832749 -44.455239 -73.692186 0.000000 0.000000 0.000000 0.000000 0.000000 0.000000 -6.188820 -0.743000 -18.025126 5.956253 -2.552864 0.833025 5.759213 7.114813 -4.202794 0.000000 0.000000 0.000000 -2.510879 -1.153129 -17.085656 1.489164 -3.532474 -0.020465 -3.138147 4.510524 0.645640 0.000000 0.000000 0.000000
-30.523678 74.153149 342.598196 2.177389 3.149508 16.800485 -0.503110 0.471171 -16.807757 -0.273110 0.094722 0.031870 0.276193 -4.258448 -0.269565 0.000000 0.000000 0.000000 -123.625674 -14.526797 -52.300956 -66.434547 6.776620 -164.367651 51.127292 -36.735580 49.891481 88.620963 42.035684 33.980091 0.000000 0.000000 0.000000 0.000000 0.000000 0.000000 115.883414 23.421191 -10.044039 57.358987 33.543563 -175.431733 -51.169093 12.376595 -174.485729 -7.765285 -43.013561 -69.244788 0.000000 0.000000 0.000000 0.000000 0.000000 0.000000 -6.410993 -0.288192 -17.551862 6.000848 -2.875976 0.816510 4.873634 6.274975 -3.714235 0.000000 0.000000 0.000000 -3.034693 -0.967961 -16.705591 1.662985 -3.118785 -0.001373 -0.335150 0.902735 -0.601214 0.000000 0.000000 0.000000
